<svg xmlns="http://www.w3.org/2000/svg" width="28" height="22" viewBox="0 0 28 22" fill="none">
  <path d="M7 19.5556L10.8889 14.6667H8.55556V11L4.66667 15.8889H7V19.5556ZM3.11111 8.55556H12.4444V2.44445H3.11111V8.55556ZM0 22V2.44445C0 1.77222 0.304889 1.19656 0.914666 0.717446C1.52444 0.238335 2.25659 -0.00081274 3.11111 2.07508e-06H12.4444C13.3 2.07508e-06 14.0327 0.239558 14.6424 0.718669C15.2522 1.19778 15.5566 1.77304 15.5556 2.44445V11H17.5C18.2519 11 18.8938 11.209 19.4258 11.627C19.9578 12.045 20.2233 12.549 20.2222 13.1389V18.7917C20.2222 19.138 20.4037 19.4537 20.7667 19.7389C21.1296 20.0241 21.5315 20.1667 21.9722 20.1667C22.4389 20.1667 22.8475 20.0241 23.198 19.7389C23.5485 19.4537 23.7233 19.138 23.7222 18.7917V7.33333H23.3333C22.8926 7.33333 22.5229 7.216 22.2242 6.98133C21.9256 6.74667 21.7767 6.45659 21.7778 6.11111V3.66667H22.5556V1.83334H24.1111V3.66667H25.6667V1.83334H27.2222V3.66667H28V6.11111C28 6.45741 27.8507 6.74789 27.552 6.98256C27.2533 7.21722 26.8841 7.33415 26.4444 7.33333H26.0556V18.7917C26.0556 19.6472 25.6599 20.396 24.8687 21.0381C24.0774 21.6802 23.1124 22.0008 21.9738 22C20.859 22 19.8997 21.679 19.096 21.0369C18.2923 20.3948 17.8904 19.6464 17.8904 18.7917V13.1389C17.8904 13.037 17.8578 12.9604 17.7924 12.9091C17.7271 12.8578 17.6301 12.8325 17.5016 12.8333H15.5556V22H0Z" fill="#111111"/>
</svg>