<svg width="25" height="20" viewBox="0 0 25 20" fill="none" xmlns="http://www.w3.org/2000/svg">
<path id="Vector" d="M3.57143 0C2.10268 0 0.892857 1.29048 0.892857 2.85714V9.31524C0.348214 9.84 0 10.5914 0 11.4286V20H4.46429V18.0952H20.5357V20H25V11.4286C25 10.5914 24.6518 9.84 24.1071 9.31524V2.85714C24.1071 1.29048 22.8973 0 21.4286 0H3.57143ZM3.57143 1.90476H21.4286C21.9241 1.90476 22.3214 2.32857 22.3214 2.85714V8.57143H20.5357V7.61905C20.5357 6.05238 19.3259 4.7619 17.8571 4.7619H14.2857C13.6018 4.7619 12.9741 5.04762 12.5 5.50571C12.0119 5.03003 11.3754 4.76492 10.7143 4.7619H7.14286C5.67411 4.7619 4.46429 6.05238 4.46429 7.61905V8.57143H2.67857V2.85714C2.67857 2.32857 3.07589 1.90476 3.57143 1.90476ZM7.14286 6.66667H10.7143C11.2098 6.66667 11.6071 7.09048 11.6071 7.61905V8.57143H6.25V7.61905C6.25 7.09048 6.64732 6.66667 7.14286 6.66667ZM14.2857 6.66667H17.8571C18.3527 6.66667 18.75 7.09048 18.75 7.61905V8.57143H13.3929V7.61905C13.3929 7.09048 13.7902 6.66667 14.2857 6.66667ZM2.67857 10.4762H22.3214C22.817 10.4762 23.2143 10.9 23.2143 11.4286V18.0952H22.3214V16.1905H2.67857V18.0952H1.78571V11.4286C1.78571 10.9 2.18304 10.4762 2.67857 10.4762Z" fill="#111111"/>
</svg>
