<svg width="29" height="30" viewBox="0 0 29 30" fill="none" xmlns="http://www.w3.org/2000/svg">
<path id="Vector" d="M12.9964 28.0057V10.1297H1.83247C1.45658 10.1297 1.21851 9.95591 1.11828 9.60833C1.01804 9.26074 1.11828 8.98763 1.41899 8.78901L13.6355 0.297933C13.9111 0.0993109 14.1993 0 14.5 0C14.8007 0 15.0889 0.0993109 15.3646 0.297933L27.581 8.78901C27.8817 8.98763 27.982 9.26074 27.8817 9.60833C27.7815 9.95591 27.5434 10.1297 27.1675 10.1297H16.0036V28.0057C16.0036 28.4277 15.8592 28.7818 15.5705 29.0678C15.2819 29.3538 14.925 29.4963 14.5 29.4953C14.074 29.4953 13.7166 29.3523 13.428 29.0663C13.1393 28.7803 12.9954 28.4267 12.9964 28.0057ZM0.96792 28.0057V21.6746L0.0281918 16.5725C-0.0469864 16.1504 0.0281919 15.778 0.253727 15.4553C0.479261 15.1325 0.805033 14.9339 1.23104 14.8594C1.63199 14.7849 2.00187 14.8658 2.34067 15.1022C2.67948 15.3386 2.88597 15.6549 2.96014 16.0511L3.82469 20.5573H8.48574C8.91175 20.5573 9.2691 20.7004 9.55778 20.9864C9.84647 21.2724 9.99031 21.6259 9.98931 22.047V28.0057C9.98931 28.4277 9.84496 28.7818 9.55628 29.0678C9.2676 29.3538 8.91075 29.4963 8.48574 29.4953C8.05973 29.4953 7.70239 29.3523 7.4137 29.0663C7.12502 28.7803 6.98118 28.4267 6.98218 28.0057V23.5367H3.97505V28.0057C3.97505 28.4277 3.83071 28.7818 3.54202 29.0678C3.25334 29.3538 2.89649 29.4963 2.47148 29.4953C2.04547 29.4953 1.68813 29.3523 1.39944 29.0663C1.11076 28.7803 0.966917 28.4267 0.96792 28.0057ZM19.0107 28.0057V22.047C19.0107 21.6249 19.155 21.2709 19.4437 20.9849C19.7324 20.6989 20.0893 20.5564 20.5143 20.5573H25.1753L26.0399 16.0511C26.115 15.6539 26.3155 15.3371 26.6413 15.1007C26.9671 14.8644 27.3429 14.7839 27.769 14.8594C28.195 14.9339 28.5207 15.1325 28.7463 15.4553C28.9718 15.778 29.047 16.1504 28.9718 16.5725L28.0321 21.6746V28.0057C28.0321 28.4277 27.8877 28.7818 27.5991 29.0678C27.3104 29.3538 26.9535 29.4963 26.5285 29.4953C26.1025 29.4953 25.7452 29.3523 25.4565 29.0663C25.1678 28.7803 25.0239 28.4267 25.025 28.0057V23.5367H22.0178V28.0057C22.0178 28.4277 21.8735 28.7818 21.5848 29.0678C21.2961 29.3538 20.9393 29.4963 20.5143 29.4953C20.0882 29.4953 19.7309 29.3523 19.4422 29.0663C19.1535 28.7803 19.0097 28.4267 19.0107 28.0057ZM9.01199 7.15038H19.988L14.5 3.35174L9.01199 7.15038Z" fill="#111111"/>
</svg>
