<svg xmlns="http://www.w3.org/2000/svg" width="34" height="27" viewBox="0 0 34 27" fill="none">
  <path d="M24.7723 2H8.96123C5.21886 2 2.18506 4.35051 2.18506 7.25001V19.5C2.18506 22.3995 5.21886 24.7501 8.96123 24.7501H24.7723C28.5147 24.7501 31.5485 22.3995 31.5485 19.5V7.25001C31.5485 4.35051 28.5147 2 24.7723 2Z" stroke="#111111" stroke-width="3.57143" stroke-linecap="round" stroke-linejoin="round"/>
  <path d="M13.4785 19.5002V7.25012H17.996C19.1941 7.25012 20.3431 7.61887 21.1903 8.27525C22.0375 8.93163 22.5134 9.82187 22.5134 10.7501C22.5134 11.6784 22.0375 12.5686 21.1903 13.225C20.3431 13.8814 19.1941 14.2501 17.996 14.2501H13.4785" stroke="#111111" stroke-width="3.57143" stroke-linecap="round" stroke-linejoin="round"/>
</svg>