<svg width="28" height="23" viewBox="0 0 28 23" fill="none" xmlns="http://www.w3.org/2000/svg">
<path id="Vector" d="M21.4005 14.2487C20.9537 12.7978 19.9878 11.5182 18.651 10.6063C17.3142 9.69444 15.6803 9.20062 14 9.20062C12.3197 9.20062 10.6858 9.69444 9.349 10.6063C8.01218 11.5182 7.04626 12.7978 6.59944 14.2487L5.53462 17.7064C5.34344 18.3272 5.31491 18.9792 5.45127 19.6115C5.58764 20.2438 5.8852 20.8394 6.32076 21.3517C6.75632 21.8641 7.31811 22.2794 7.96232 22.5653C8.60653 22.8512 9.31576 23 10.0347 23H17.9653C18.6842 23 19.3934 22.8512 20.0377 22.5653C20.6819 22.2794 21.2437 21.8641 21.6792 21.3517C22.1148 20.8394 22.4123 20.2438 22.5487 19.6115C22.6851 18.9792 22.6565 18.3272 22.4654 17.7064L21.4005 14.2487ZM20.1937 20.3382C19.9335 20.6467 19.5967 20.8968 19.2099 21.0685C18.8231 21.2402 18.3969 21.3288 17.9653 21.3274H10.0347C9.60333 21.3274 9.17779 21.2381 8.79125 21.0666C8.40471 20.895 8.06763 20.6458 7.80629 20.3384C7.54495 20.031 7.36641 19.6736 7.2846 19.2942C7.20278 18.9148 7.2199 18.5236 7.33462 18.1511L8.39944 14.6935C8.73759 13.5955 9.46857 12.6271 10.4802 11.9371C11.4919 11.247 12.7284 10.8733 14 10.8733C15.2716 10.8733 16.5081 11.247 17.5197 11.9371C18.5314 12.6271 19.2624 13.5955 19.6005 14.6935L20.6654 18.1511C20.7817 18.5235 20.7997 18.915 20.7178 19.2947C20.636 19.6743 20.4565 20.0317 20.1937 20.3384V20.3382ZM7.58705 10.3668C7.74951 9.4573 7.53407 8.48366 6.98019 7.62455C6.4263 6.76544 5.59257 6.11148 4.63226 5.78275C3.60386 5.43092 2.55491 5.48696 1.67764 5.94045C-0.0663386 6.84243 -0.525281 9.06543 0.654781 10.8959C1.20849 11.755 2.04229 12.4092 3.00259 12.7377C3.42799 12.8862 3.88016 12.9637 4.3367 12.9662C4.90549 12.968 5.46465 12.8348 5.95721 12.58C6.83396 12.1264 7.41281 11.3404 7.58705 10.3668ZM5.74311 10.1024C5.65967 10.5691 5.40409 10.9346 5.02345 11.1314C4.64282 11.3283 4.16176 11.3437 3.66868 11.1752C3.10774 10.9833 2.61163 10.5871 2.27167 10.0596C1.61812 9.04557 1.77346 7.82244 2.61128 7.38902C2.8219 7.28196 3.06043 7.2268 3.30258 7.22918C3.52973 7.23128 3.75454 7.27056 3.96593 7.34506C4.52687 7.53705 5.02299 7.93321 5.36295 8.46066C5.70291 8.98812 5.83788 9.5713 5.74311 10.1024ZM7.7893 6.90165C8.4523 7.37642 9.20942 7.62366 9.97507 7.62361C10.2044 7.62354 10.4331 7.60145 10.6571 7.5577C12.625 7.1745 13.8181 5.18238 13.3169 3.11692C13.0817 2.14752 12.51 1.29703 11.707 0.722002C10.8472 0.106258 9.82872 -0.126815 8.83918 0.065958C6.87142 0.449099 5.67828 2.44122 6.17947 4.50668C6.41469 5.47614 6.98643 6.32663 7.7893 6.90165ZM9.23574 1.70045C9.32648 1.68292 9.41905 1.67416 9.51187 1.67431C9.85895 1.67431 10.2159 1.79595 10.541 2.02876C11.01 2.36459 11.3478 2.87731 11.4922 3.47251C11.7699 4.61697 11.2059 5.73937 10.2605 5.92347C9.831 6.0071 9.36744 5.89064 8.95536 5.59547C8.48638 5.25958 8.14858 4.74686 8.00421 4.15171C7.7264 3.00694 8.29043 1.88454 9.23574 1.70045ZM26.3223 5.94045C25.4454 5.48696 24.3959 5.43092 23.3677 5.78275C22.4074 6.11138 21.5736 6.76544 21.0199 7.62455C20.4662 8.48366 20.2507 9.45751 20.413 10.3668C20.587 11.3404 21.1658 12.1264 22.0429 12.58C22.5354 12.8348 23.0946 12.9681 23.6634 12.9662C24.1199 12.9637 24.5721 12.8862 24.9975 12.7377C25.9578 12.4092 26.7916 11.755 27.3453 10.8959C28.5253 9.06543 28.0663 6.84243 26.3223 5.94045ZM25.7283 10.0596C25.3883 10.5871 24.8922 10.9833 24.3313 11.1752C23.8384 11.3439 23.3573 11.3284 22.9766 11.1314C22.596 10.9345 22.3406 10.5691 22.257 10.1024C22.1621 9.5713 22.297 8.98833 22.637 8.46113C22.977 7.93394 23.4731 7.53752 24.034 7.34553C24.2454 7.27096 24.4702 7.23162 24.6974 7.22944C24.9395 7.22706 25.1781 7.28222 25.3887 7.38928C26.2265 7.82234 26.382 9.04531 25.7283 10.0596ZM17.3428 7.5577C17.5669 7.60145 17.7956 7.62354 18.0249 7.62361C18.7905 7.62361 19.5479 7.37642 20.2107 6.90165C21.0135 6.32668 21.5853 5.47614 21.8205 4.50673C22.3217 2.44127 21.1286 0.449151 19.1608 0.0660102C18.1713 -0.126658 17.1528 0.106258 16.2929 0.722054C15.49 1.29703 14.9183 2.14757 14.6831 3.11692C14.1819 5.18238 15.375 7.1745 17.3428 7.5577ZM16.5078 3.47225C16.6522 2.87705 16.99 2.36412 17.4589 2.0285C17.7841 1.79569 18.141 1.67405 18.4881 1.67405C18.5809 1.6739 18.6735 1.68266 18.7642 1.70019C19.7095 1.88428 20.2736 3.00694 19.9959 4.15114C19.8514 4.74634 19.5136 5.25927 19.0447 5.59495C18.6327 5.89007 18.1694 6.00652 17.7396 5.92294C16.7941 5.73911 16.23 4.61655 16.5078 3.47225Z" fill="black"/>
</svg>
