<svg xmlns="http://www.w3.org/2000/svg" width="29" height="26" viewBox="0 0 29 26" fill="none">
  <path d="M13.4445 22.3667V9.36667H4.47266C4.17057 9.36667 3.97925 9.24028 3.8987 8.9875C3.81814 8.73472 3.8987 8.53611 4.14036 8.39167L13.9581 2.21667C14.1796 2.07222 14.4112 2 14.6529 2C14.8945 2 15.1261 2.07222 15.3477 2.21667L25.1654 8.39167C25.407 8.53611 25.4876 8.73472 25.407 8.9875C25.3265 9.24028 25.1352 9.36667 24.8331 9.36667H15.8612V22.3667C15.8612 22.6736 15.7452 22.9311 15.5132 23.1391C15.2812 23.3471 14.9944 23.4507 14.6529 23.45C14.3105 23.45 14.0233 23.346 13.7913 23.138C13.5593 22.93 13.4437 22.6729 13.4445 22.3667ZM14.6529 7.2H19.0633H10.2424H14.6529ZM3.77786 22.3667V17.7625L3.02266 14.0521C2.96224 13.7451 3.02266 13.4743 3.20391 13.2396C3.38516 13.0049 3.64696 12.8604 3.98932 12.8062C4.31155 12.7521 4.6088 12.8109 4.88107 12.9828C5.15335 13.1547 5.31929 13.3847 5.37891 13.6729L6.0737 16.95H9.81953C10.1619 16.95 10.4491 17.054 10.6811 17.262C10.9131 17.47 11.0287 17.7271 11.0279 18.0333V22.3667C11.0279 22.6736 10.9119 22.9311 10.6799 23.1391C10.4479 23.3471 10.1611 23.4507 9.81953 23.45C9.47717 23.45 9.18999 23.346 8.95799 23.138C8.72599 22.93 8.61039 22.6729 8.6112 22.3667V19.1167H6.19453V22.3667C6.19453 22.6736 6.07853 22.9311 5.84653 23.1391C5.61453 23.3471 5.32775 23.4507 4.9862 23.45C4.64384 23.45 4.35666 23.346 4.12466 23.138C3.89266 22.93 3.77706 22.6729 3.77786 22.3667ZM18.2779 22.3667V18.0333C18.2779 17.7264 18.3939 17.4689 18.6259 17.2609C18.8579 17.0529 19.1446 16.9493 19.4862 16.95H23.232L23.9268 13.6729C23.9872 13.384 24.1483 13.1536 24.4102 12.9817C24.672 12.8099 24.974 12.7514 25.3164 12.8062C25.6588 12.8604 25.9206 13.0049 26.1018 13.2396C26.2831 13.4743 26.3435 13.7451 26.2831 14.0521L25.5279 17.7625V22.3667C25.5279 22.6736 25.4119 22.9311 25.1799 23.1391C24.9479 23.3471 24.6611 23.4507 24.3195 23.45C23.9772 23.45 23.69 23.346 23.458 23.138C23.226 22.93 23.1104 22.6729 23.1112 22.3667V19.1167H20.6945V22.3667C20.6945 22.6736 20.5785 22.9311 20.3465 23.1391C20.1145 23.3471 19.8278 23.4507 19.4862 23.45C19.1438 23.45 18.8567 23.346 18.6247 23.138C18.3927 22.93 18.2771 22.6729 18.2779 22.3667ZM10.2424 7.2H19.0633L14.6529 4.4375L10.2424 7.2Z" fill="#111111"/>
</svg>