<?xml version="1.0" encoding="iso-8859-1"?>
<!-- Uploaded to: SVG Repo, www.svgrepo.com, Generator: SVG Repo Mixer Tools -->
<svg fill="#000000" height="800px" width="800px" version="1.1" id="Layer_1" xmlns="http://www.w3.org/2000/svg" xmlns:xlink="http://www.w3.org/1999/xlink" 
	 viewBox="0 0 512 512" xml:space="preserve">
<g>
	<g>
		<g>
			<path d="M145.723,122.782c3.167,5.122,8.646,7.94,14.257,7.94c3.004,0,6.047-0.809,8.789-2.505
				c7.865-4.864,10.3-15.182,5.435-23.047c-3.651-5.904-1.881-14.19,1.468-27.134c3.599-13.908,8.077-31.218-1.306-47.048
				c-4.714-7.954-14.981-10.581-22.941-5.867c-7.954,4.715-10.581,14.986-5.866,22.941c2.282,3.85-0.051,12.866-2.306,21.586
				C139.26,85.084,134.29,104.294,145.723,122.782z"/>
			<path d="M199.329,122.782c3.168,5.122,8.648,7.941,14.258,7.941c3.004,0,6.046-0.808,8.789-2.505
				c7.865-4.862,10.3-15.181,5.436-23.046c-3.651-5.905-1.882-14.19,1.467-27.135c3.599-13.909,8.076-31.217-1.305-47.047
				c-4.715-7.956-14.988-10.581-22.941-5.867c-7.956,4.715-10.582,14.986-5.868,22.94c2.283,3.85-0.05,12.867-2.306,21.586
				C192.868,85.084,187.898,104.294,199.329,122.782z"/>
			<path d="M508.918,165.908c-5.345-7.546-15.795-9.328-23.342-3.984c-3.474,2.462-83.264,60.714-112.363,227.314h-43.576
				l7.047-46.256c18.465-0.403,33.365-15.537,33.365-34.096v-34.415c0-13.115-7.442-24.517-18.322-30.226l10.075-66.137
				c0.734-4.826-0.673-9.732-3.853-13.434c-3.181-3.701-7.818-5.832-12.7-5.832H24.799c-4.881,0-9.518,2.13-12.7,5.832
				c-3.181,3.703-4.588,8.609-3.853,13.434l10.076,66.138C7.442,249.955,0,261.358,0,274.471v34.415
				c0,18.558,14.9,33.692,33.364,34.096l12.371,81.199c0.724,35.986,30.224,65.037,66.381,65.037h5.841
				c0.008,0,0.016,0.001,0.023,0.001c0.009,0,0.018-0.001,0.026-0.001h134.038c0.009,0,0.018,0.001,0.026,0.001
				s0.016-0.001,0.023-0.001h5.84c8.99,0,17.568-1.799,25.395-5.051c5.757,0.945,11.647,1.441,17.632,1.441
				c46.692,0,87.742-29.746,102.285-74.063c0.372-1.058,0.641-2.163,0.796-3.306c4.016-26.436,9.387-49.981,15.489-70.819
				c13.464-45.978,30.494-78.768,44.41-100.293c2.72-4.207,5.397-8.108,8-11.714c18.284-25.33,32.895-36.089,32.993-36.163
				C512.479,183.905,514.263,173.454,508.918,165.908z M292.265,192.331h33.496l-7.316,48.023h-30.193L292.265,192.331z
				 M201.768,192.331h56.893l-4.013,48.023h-52.88V192.331z M168.28,192.331v48.023h-52.879l-4.013-48.023H168.28z M77.782,192.331
				l4.014,48.023H51.602l-7.316-48.023H77.782z M79.208,422.824c0-0.844-0.065-1.687-0.191-2.522l-11.776-77.3h23.135l9.214,110.246
				C87.64,448.311,79.208,436.535,79.208,422.824z M34.118,309.514c-0.348,0-0.631-0.281-0.631-0.627v-34.415
				c0-0.347,0.284-0.628,0.631-0.628h301.813c0.348,0,0.63,0.282,0.63,0.628v34.415c0,0.346-0.282,0.627-0.63,0.627H34.118z
				 M302.808,343.001l-7.044,46.237H275.81l3.864-46.237H302.808z M168.28,455.731h-34.878l-9.421-112.73h44.299V455.731z
				 M201.768,343.001h44.302l-3.864,46.237h-27.734c-4.914,0-9.537,2.176-12.703,5.877V343.001z M201.768,455.731v-35.927
				c5.801,13.798,14.273,25.941,24.687,35.927H201.768z M300.96,452.121c-23.792,0-45.457-11.207-59.181-29.395h118.36
				C346.417,440.914,324.753,452.121,300.96,452.121z"/>
		</g>
	</g>
</g>
</svg>