<svg xmlns="http://www.w3.org/2000/svg" width="38" height="36" viewBox="0 0 38 36" fill="none">
  <path d="M28.6 13.7472H3V19.8885H28.6V13.7472Z" stroke="#111111" stroke-width="4.16667" stroke-miterlimit="2" stroke-linecap="round" stroke-linejoin="round"/>
  <path d="M28.6 9.14133V24.4947C28.6 25.309 28.2629 26.0901 27.6627 26.6659C27.0626 27.2418 26.2487 27.5653 25.4 27.5653H9.4M9.4 27.5653H6.2C5.35131 27.5653 4.53737 27.2418 3.93726 26.6659C3.33714 26.0901 3 25.309 3 24.4947V6.07066C3 5.25627 3.33714 4.47524 3.93726 3.89938C4.53737 3.32352 5.35131 3 6.2 3H31.8C32.6487 3 33.4626 3.32352 34.0627 3.89938C34.6629 4.47524 35 5.25627 35 6.07066V30.636C35 32.3325 33.568 33.7066 31.8 33.7066H12.6C10.832 33.7066 9.4 32.3325 9.4 30.636V27.5653Z" stroke="#111111" stroke-width="4.16667" stroke-miterlimit="2" stroke-linecap="round" stroke-linejoin="round"/>
</svg>