<svg xmlns="http://www.w3.org/2000/svg" width="28" height="29" viewBox="0 0 28 29" fill="none">
  <path d="M18.9525 13.2965C20.2635 14.3859 20.9997 15.8616 20.9997 17.4C20.9997 18.9384 20.2635 20.4141 18.9525 21.5035C17.6377 22.5898 15.8567 23.1998 14 23.1998C12.1433 23.1998 10.3623 22.5898 9.0475 21.5035L18.9525 13.2965ZM3.5 0H24.5C25.4283 0 26.3185 0.305535 26.9749 0.84939C27.6313 1.39325 28 2.13087 28 2.9V26.1C28 26.8691 27.6313 27.6068 26.9749 28.1506C26.3185 28.6945 25.4283 29 24.5 29H3.5C2.57174 29 1.6815 28.6945 1.02513 28.1506C0.368749 27.6068 0 26.8691 0 26.1V2.9C0 2.13087 0.368749 1.39325 1.02513 0.84939C1.6815 0.305535 2.57174 0 3.5 0ZM5.25 2.9C4.78587 2.9 4.34075 3.05277 4.01256 3.3247C3.68437 3.59662 3.5 3.96544 3.5 4.35C3.5 4.73456 3.68437 5.10338 4.01256 5.3753C4.34075 5.64723 4.78587 5.8 5.25 5.8C5.71413 5.8 6.15925 5.64723 6.48744 5.3753C6.81563 5.10338 7 4.73456 7 4.35C7 3.96544 6.81563 3.59662 6.48744 3.3247C6.15925 3.05277 5.71413 2.9 5.25 2.9ZM10.5 2.9C10.0359 2.9 9.59075 3.05277 9.26256 3.3247C8.93437 3.59662 8.75 3.96544 8.75 4.35C8.75 4.73456 8.93437 5.10338 9.26256 5.3753C9.59075 5.64723 10.0359 5.8 10.5 5.8C10.9641 5.8 11.4092 5.64723 11.7374 5.3753C12.0656 5.10338 12.25 4.73456 12.25 4.35C12.25 3.96544 12.0656 3.59662 11.7374 3.3247C11.4092 3.05277 10.9641 2.9 10.5 2.9ZM14 8.7C11.2152 8.7 8.54451 9.6166 6.57538 11.2482C4.60625 12.8797 3.5 15.0926 3.5 17.4C3.5 19.7074 4.60625 21.9203 6.57538 23.5518C8.54451 25.1834 11.2152 26.1 14 26.1C16.7848 26.1 19.4555 25.1834 21.4246 23.5518C23.3938 21.9203 24.5 19.7074 24.5 17.4C24.5 15.0926 23.3938 12.8797 21.4246 11.2482C19.4555 9.6166 16.7848 8.7 14 8.7Z" fill="#111111"/>
</svg>