<svg width="33" height="30" viewBox="0 0 33 30" fill="none" xmlns="http://www.w3.org/2000/svg">
<path id="Vector" d="M4.71429 0C2.77554 0 1.17857 1.90315 1.17857 4.21362V13.7378C0.459643 14.5117 0 15.6199 0 16.8545V29.4953H5.89286V26.6862H27.1071V29.4953H33V16.8545C33 15.6199 32.5404 14.5117 31.8214 13.7378V4.21362C31.8214 1.90315 30.2245 0 28.2857 0H4.71429ZM4.71429 2.80908H28.2857C28.9398 2.80908 29.4643 3.4341 29.4643 4.21362V12.6409H27.1071V11.2363C27.1071 8.92585 25.5102 7.0227 23.5714 7.0227H18.8571C17.9544 7.0227 17.1258 7.44406 16.5 8.11964C15.8557 7.41812 15.0156 7.02714 14.1429 7.0227H9.42857C7.48982 7.0227 5.89286 8.92585 5.89286 11.2363V12.6409H3.53571V4.21362C3.53571 3.4341 4.06018 2.80908 4.71429 2.80908ZM9.42857 9.83178H14.1429C14.797 9.83178 15.3214 10.4568 15.3214 11.2363V12.6409H8.25V11.2363C8.25 10.4568 8.77446 9.83178 9.42857 9.83178ZM18.8571 9.83178H23.5714C24.2255 9.83178 24.75 10.4568 24.75 11.2363V12.6409H17.6786V11.2363C17.6786 10.4568 18.203 9.83178 18.8571 9.83178ZM3.53571 15.4499H29.4643C30.1184 15.4499 30.6429 16.075 30.6429 16.8545V26.6862H29.4643V23.8772H3.53571V26.6862H2.35714V16.8545C2.35714 16.075 2.88161 15.4499 3.53571 15.4499Z" fill="#111111"/>
</svg>
