<svg width="57" height="43" viewBox="0 0 57 43" fill="none" xmlns="http://www.w3.org/2000/svg">
<g id="carousel-arrow">
<path id="Vector" d="M31.5072 41.955C31.1767 41.6472 30.9943 41.2337 31.0002 40.8052C31.0061 40.3768 31.1997 39.9684 31.5385 39.6698L50.1591 23.2793L2.05291 22.6198C1.57894 22.6133 1.12671 22.4367 0.79572 22.1289C0.464726 21.8211 0.282081 21.4073 0.28796 20.9785C0.293839 20.5496 0.487761 20.141 0.827068 19.8424C1.16637 19.5437 1.62327 19.3796 2.09724 19.3861L50.2034 20.0457L32.0392 3.15084C31.7277 2.84001 31.5614 2.43227 31.5753 2.01351C31.5892 1.59475 31.7823 1.19767 32.1138 0.905929C32.4453 0.614185 32.8893 0.450556 33.3524 0.449513C33.8155 0.44847 34.2615 0.610094 34.5963 0.900337L55.7757 20.5964C56.1062 20.9042 56.2886 21.3177 56.2827 21.7461C56.2768 22.1746 56.0832 22.583 55.7444 22.8816L34.033 41.9896C33.6937 42.2878 33.2372 42.4516 32.7636 42.4451C32.29 42.4386 31.8381 42.2623 31.5072 41.955Z" fill="#B7B5B5"/>
</g>
</svg>
