<svg xmlns="http://www.w3.org/2000/svg" width="33" height="32" viewBox="0 0 33 32" fill="none">
  <path d="M21.1047 32H11.8953C3.56093 32 0 28.547 0 20.4651V11.5349C0 3.45302 3.56093 0 11.8953 0H21.1047C29.4391 0 33 3.45302 33 11.5349V20.4651C33 28.547 29.4391 32 21.1047 32ZM11.8953 2.23256C4.81953 2.23256 2.30233 4.67349 2.30233 11.5349V20.4651C2.30233 27.3265 4.81953 29.7674 11.8953 29.7674H21.1047C28.1805 29.7674 30.6977 27.3265 30.6977 20.4651V11.5349C30.6977 4.67349 28.1805 2.23256 21.1047 2.23256H11.8953Z" fill="#CBB26A"/>
  <path d="M14.3195 21.3284C14.0125 21.3284 13.7209 21.2094 13.506 21.001L9.16221 16.7889C8.71709 16.3573 8.71709 15.6428 9.16221 15.2112C9.60732 14.7796 10.3441 14.7796 10.7892 15.2112L14.3195 18.6345L22.2088 10.9842C22.6539 10.5526 23.3907 10.5526 23.8358 10.9842C24.2809 11.4159 24.2809 12.1303 23.8358 12.5619L15.133 21.001C14.9181 21.2094 14.6265 21.3284 14.3195 21.3284Z" fill="#CBB26A"/>
</svg>