<svg width="30" height="26" viewBox="0 0 30 26" fill="none" xmlns="http://www.w3.org/2000/svg">
<g id="&#240;&#159;&#166;&#134; icon &#34;Envelope&#34;">
<path id="Vector" d="M29.4316 8.42204C29.6602 8.21758 30 8.40884 30 8.73201V22.2193C30 23.9671 28.7402 25.3851 27.1875 25.3851H2.8125C1.25977 25.3851 0 23.9671 0 22.2193V8.73861C0 8.40884 0.333984 8.22418 0.568359 8.42863C1.88086 9.57621 3.62109 11.0338 9.59766 15.9209C10.834 16.9365 12.9199 19.0734 15 19.0602C17.0918 19.08 19.2188 16.897 20.4082 15.9209C26.3848 11.0338 28.1191 9.56961 29.4316 8.42204ZM15 16.9431C16.3594 16.9695 18.3164 15.0173 19.3008 14.2127C27.0762 7.86144 27.668 7.30743 29.4609 5.72457C29.8008 5.42778 30 4.96611 30 4.47806V3.22496C30 1.47722 28.7402 0.0592346 27.1875 0.0592346H2.8125C1.25977 0.0592346 0 1.47722 0 3.22496V4.47806C0 4.96611 0.199219 5.42119 0.539062 5.72457C2.33203 7.30084 2.92383 7.86144 10.6992 14.2127C11.6836 15.0173 13.6406 16.9695 15 16.9431Z" fill="#CBB26A"/>
</g>
</svg>
