<svg width="30" height="28" viewBox="0 0 30 28" fill="none" xmlns="http://www.w3.org/2000/svg">
<g id="Heart">
<path id="Icon" d="M15.4104 27.8478C14.7708 27.8478 14.0031 27.5743 13.4914 27.0271C5.17555 19.2303 5.04761 19.0936 5.04761 18.9568L4.91967 18.82C3.38444 17.1786 2.48889 14.8532 2.48889 12.5278V12.2543C2.61683 7.33 6.32697 3.5 10.9327 3.5C12.34 3.5 14.259 4.32071 15.4104 5.96214C16.5619 4.32071 18.6088 3.5 20.0161 3.5C24.6218 3.5 28.204 7.33 28.4599 12.2543V12.5278C28.4599 14.99 27.5644 17.1786 26.0291 18.9568L25.9012 19.0936C25.7733 19.2303 24.7498 20.1878 17.4574 27.1639C16.8177 27.5743 16.178 27.8478 15.4104 27.8478ZM6.96665 18.5464C7.4784 19.0936 10.0371 21.0086 14.7708 25.3857C15.1546 25.796 15.6663 25.796 16.0501 25.3857C20.9117 20.735 23.7263 18.1361 24.366 17.5889L24.4939 17.4521C25.7733 16.0843 26.4129 14.3061 26.4129 12.5278V12.2543C26.285 8.42428 23.4704 5.55178 19.8882 5.55178C18.9926 5.55178 17.2015 6.23571 16.5619 7.74035C16.306 8.28749 15.7942 8.56107 15.2825 8.56107C14.7708 8.56107 14.259 8.28749 14.0031 7.74035C13.3635 6.3725 11.7003 5.55178 10.6768 5.55178C7.22252 5.55178 4.28 8.56107 4.15206 12.2543V12.6646C4.15206 14.4428 4.91968 16.2211 6.0711 17.4521L6.96665 18.5464Z" fill="black"/>
</g>
</svg>
