<svg width="35" height="36" viewBox="0 0 35 36" fill="none" xmlns="http://www.w3.org/2000/svg">
<g id="&#240;&#159;&#166;&#134; icon &#34;Instagram Square&#34;">
<path id="Vector" d="M17.5 13.5134C16.6759 13.5137 15.8703 13.7617 15.1853 14.226C14.5002 14.6903 13.9663 15.35 13.6511 16.1218C13.336 16.8936 13.2537 17.7428 13.4146 18.562C13.5756 19.3812 13.9726 20.1337 14.5555 20.7242C15.1383 21.3147 15.8808 21.7168 16.6892 21.8797C17.4975 22.0425 18.3353 21.9588 19.0966 21.639C19.858 21.3193 20.5087 20.778 20.9666 20.0834C21.4244 19.3889 21.6687 18.5724 21.6687 17.7371C21.6679 16.6169 21.2284 15.5428 20.4467 14.7509C19.6651 13.9589 18.6052 13.5138 17.5 13.5134ZM27.243 10.2669C27.0308 9.722 26.7105 9.22709 26.3018 8.81287C25.8931 8.39865 25.4048 8.07396 24.8672 7.85895C23.2266 7.20252 19.3203 7.3498 17.5 7.3498C15.6797 7.3498 11.7773 7.19697 10.132 7.85895C9.59441 8.07396 9.10611 8.39865 8.69743 8.81287C8.28874 9.22709 7.96839 9.722 7.75625 10.2669C7.10938 11.9298 7.25391 15.8929 7.25391 17.7363C7.25391 19.5797 7.10938 23.538 7.75938 25.2064C7.97152 25.7513 8.29187 26.2463 8.70055 26.6605C9.10923 27.0747 9.59753 27.3994 10.1352 27.6144C11.7758 28.2708 15.682 28.1235 17.5031 28.1235C19.3242 28.1235 23.225 28.2764 24.8703 27.6144C25.4079 27.3994 25.8962 27.0747 26.3049 26.6605C26.7136 26.2463 27.034 25.7513 27.2461 25.2064C27.8984 23.5436 27.7484 19.5805 27.7484 17.7371C27.7484 15.8937 27.8984 11.9361 27.2461 10.2677L27.243 10.2669ZM17.5 24.2301C16.233 24.2301 14.9944 23.8493 13.9409 23.1358C12.8874 22.4224 12.0663 21.4083 11.5814 20.2218C11.0965 19.0354 10.9697 17.7299 11.2168 16.4703C11.464 15.2108 12.0742 14.0539 12.9701 13.1458C13.866 12.2377 15.0075 11.6193 16.2502 11.3688C17.4929 11.1183 18.781 11.2468 19.9516 11.7383C21.1222 12.2297 22.1227 13.062 22.8266 14.1297C23.5305 15.1975 23.9062 16.4529 23.9062 17.7371C23.9073 18.59 23.7423 19.4348 23.4207 20.2231C23.0991 21.0113 22.6273 21.7275 22.0322 22.3307C21.4371 22.9338 20.7305 23.412 19.9528 23.738C19.1751 24.0639 18.3416 24.2311 17.5 24.2301ZM24.1703 12.4872C23.8745 12.4874 23.5854 12.3986 23.3393 12.2322C23.0933 12.0657 22.9016 11.8291 22.7883 11.5522C22.675 11.2753 22.6452 10.9705 22.7029 10.6765C22.7605 10.3824 22.9028 10.1123 23.1119 9.90025C23.321 9.68822 23.5874 9.5438 23.8775 9.48525C24.1676 9.42671 24.4683 9.45668 24.7416 9.57136C25.0149 9.68605 25.2484 9.8803 25.4128 10.1296C25.5771 10.3788 25.6648 10.6719 25.6648 10.9716C25.6657 11.1707 25.6277 11.368 25.5531 11.5522C25.4786 11.7363 25.3688 11.9038 25.2303 12.0449C25.0917 12.186 24.927 12.298 24.7457 12.3744C24.5643 12.4509 24.3699 12.4903 24.1734 12.4904L24.1703 12.4872ZM31.25 0H3.75C2.75544 0 1.80161 0.40044 1.09835 1.11323C0.395088 1.82602 0 2.79277 0 3.8008L0 31.6733C0 32.6814 0.395088 33.6481 1.09835 34.3609C1.80161 35.0737 2.75544 35.4741 3.75 35.4741H31.25C32.2446 35.4741 33.1984 35.0737 33.9016 34.3609C34.6049 33.6481 35 32.6814 35 31.6733V3.8008C35 2.79277 34.6049 1.82602 33.9016 1.11323C33.1984 0.40044 32.2446 0 31.25 0ZM29.9125 22.9632C29.8117 24.9926 29.3547 26.7909 27.893 28.2684C26.4312 29.746 24.6586 30.2187 22.6586 30.3153C20.5953 30.4333 14.4094 30.4333 12.3461 30.3153C10.3438 30.2132 8.57578 29.7492 7.11172 28.2684C5.64766 26.7877 5.1875 24.9887 5.09219 22.9632C4.97578 20.8711 4.97578 14.6006 5.09219 12.511C5.19297 10.4815 5.64453 8.68324 7.11172 7.20568C8.57891 5.72812 10.3516 5.26094 12.3461 5.16434C14.4094 5.04635 20.5953 5.04635 22.6586 5.16434C24.6609 5.26648 26.4344 5.7305 27.893 7.21123C29.3516 8.69195 29.8172 10.491 29.9125 12.5205C30.0289 14.6046 30.0289 20.8696 29.9125 22.9632Z" fill="#CBB26A"/>
</g>
</svg>
