<svg width="30" height="46" viewBox="0 0 30 46" fill="none" xmlns="http://www.w3.org/2000/svg">
<g id="&#240;&#159;&#166;&#134; icon &#34;Alternate Map Marker&#34;">
<path id="Vector" d="M13.4584 44.1153C2.10703 25.5924 0 23.6913 0 16.8839C0 7.55914 6.7157 0 15 0C23.2843 0 30 7.55914 30 16.8839C30 23.6913 27.893 25.5924 16.5416 44.1153C15.7966 45.3266 14.2033 45.3265 13.4584 44.1153ZM15 23.9188C18.4518 23.9188 21.25 20.7692 21.25 16.8839C21.25 12.9986 18.4518 9.84893 15 9.84893C11.5482 9.84893 8.75 12.9986 8.75 16.8839C8.75 20.7692 11.5482 23.9188 15 23.9188Z" fill="#CBB26A"/>
</g>
</svg>
