<svg width="30" height="36" viewBox="0 0 30 36" fill="none" xmlns="http://www.w3.org/2000/svg">
<path id="Vector" d="M29.1445 25.1209L22.5818 21.8396C22.3015 21.7002 21.9899 21.6708 21.694 21.7559C21.3981 21.841 21.1339 22.0359 20.9412 22.3113L18.0349 26.4539C13.4737 23.945 9.80302 19.6625 7.65248 14.3411L11.2033 10.9504C11.4399 10.726 11.6073 10.4178 11.6802 10.0724C11.7532 9.72701 11.7277 9.36331 11.6076 9.03635L8.79507 1.37996C8.6633 1.0275 8.43025 0.73973 8.13609 0.566267C7.84193 0.392804 7.50512 0.344524 7.18372 0.429752L1.08986 2.07041C0.779996 2.15389 0.503531 2.35744 0.305592 2.64784C0.107653 2.93824 -7.13807e-05 3.29833 3.54862e-08 3.66936C3.54862e-08 21.2038 12.1819 35.3887 27.188 35.3887C27.5061 35.3889 27.8149 35.2633 28.0639 35.0324C28.313 34.8014 28.4875 34.4788 28.5591 34.1172L29.9654 27.0077C30.0379 26.6309 29.9957 26.2363 29.8459 25.892C29.696 25.5476 29.448 25.275 29.1445 25.1209Z" fill="#CBB26A"/>
</svg>
