<svg width="35" height="32" viewBox="0 0 35 32" fill="none" xmlns="http://www.w3.org/2000/svg">
<g id="&#240;&#159;&#166;&#134; icon &#34;Twitter&#34;">
<path id="Vector" d="M31.4024 8.30783C31.4246 8.65172 31.4246 8.99569 31.4246 9.33958C31.4246 19.8287 24.207 31.9147 11.0153 31.9147C6.95115 31.9147 3.17578 30.6127 0 28.3528C0.577434 28.4264 1.13258 28.451 1.73223 28.451C5.08562 28.451 8.1726 27.1983 10.6377 25.0611C7.48415 24.9874 4.84137 22.7029 3.93082 19.5585C4.37502 19.6322 4.81915 19.6813 5.28557 19.6813C5.92958 19.6813 6.57367 19.583 7.17325 19.4112C3.88645 18.6742 1.42127 15.4808 1.42127 11.6241V11.5259C2.37618 12.1154 3.48668 12.4839 4.66363 12.533C2.73151 11.1082 1.4657 8.6763 1.4657 5.92502C1.4657 4.45115 1.82096 3.10009 2.44283 1.92097C5.97395 6.73567 11.2817 9.87992 17.2335 10.2239C17.1224 9.63432 17.0558 9.02026 17.0558 8.40613C17.0558 4.03354 20.2538 0.47168 24.229 0.47168C26.2944 0.47168 28.1599 1.42971 29.4702 2.97729C31.0913 2.6334 32.6459 1.97012 34.0229 1.06124C33.4898 2.90364 32.3572 4.45123 30.8693 5.43375C32.3129 5.26188 33.712 4.81962 35 4.20556C34.023 5.77765 32.8015 7.17778 31.4024 8.30783Z" fill="#CBB26A"/>
</g>
</svg>
